# xmcd
#
# Track frame offsets:
# 150
# 20344
# 34039
# 54755
# 76590
# 105520
# 121890
# 133037
# 146558
# 164606
# 171062
# 185458
# 200525
# 213518
# 240775
# 253368
#
# Disc length: 3561 seconds
#
#
# Revision: 0
# Processed by: cddbd v1.5.2PL0 Copyright (c) Steve Scherf et al.
# Submitted via: FreeRIP 2.951 
#
DISCID=d00de710
DTITLE=Varios - Exitos - Exitos
DYEAR=1900
DGENRE=Club
TTITLE0=Varios - Exitos
TTITLE1=Varios - Exitos
TTITLE2=Varios - Exitos
TTITLE3=Varios - Exitos
TTITLE4=Varios - Exitos
TTITLE5=Varios - Exitos
TTITLE6=Varios - Exitos
TTITLE7=Varios - Exitos
TTITLE8=Varios - Exitos
TTITLE9=Varios - Exitos
TTITLE10=Varios - Exitos
TTITLE11=Varios - Exitos
TTITLE12=Varios - Exitos
TTITLE13=Varios - Exitos
TTITLE14=Varios - Exitos
TTITLE15=Varios - Exitos
EXTD=
EXTT0=
EXTT1=
EXTT2=
EXTT3=
EXTT4=
EXTT5=
EXTT6=
EXTT7=
EXTT8=
EXTT9=
EXTT10=
EXTT11=
EXTT12=
EXTT13=
EXTT14=
EXTT15=
PLAYORDER=
